<?xml version="1.0" encoding="utf-8"?>
<!-- Generator: Adobe Illustrator 16.0.0, SVG Export Plug-In . SVG Version: 6.00 Build 0)  -->
<!DOCTYPE svg PUBLIC "-//W3C//DTD SVG 1.1//EN" "http://www.w3.org/Graphics/SVG/1.1/DTD/svg11.dtd">
<svg version="1.1" id="Capa_1" xmlns="http://www.w3.org/2000/svg" xmlns:xlink="http://www.w3.org/1999/xlink" x="0px" y="0px"
	 width="792px" height="612px" viewBox="0 0 792 612" enable-background="new 0 0 792 612" xml:space="preserve">
<g>
	<path fill="#010202" d="M196.946,452.587l-14.6-29.505h-16.791v29.505h-8.068v-65.147h32.75c6.227,0,10.376,1.93,12.452,5.786
		c1.168,2.166,1.753,6.052,1.753,11.664v0.745c0,5.609-0.585,9.5-1.753,11.661c-1.988,3.713-5.772,5.644-11.355,5.786l14.644,29.505
		H196.946z M190.237,415.018c3.01,0,4.808-0.527,5.394-1.58c0.526-0.965,0.789-3.565,0.789-7.803v-0.745
		c0-4.24-0.263-6.841-0.789-7.806c-0.586-1.051-2.384-1.578-5.394-1.578h-24.682v19.512H190.237z"/>
	<path fill="#010202" d="M222.199,452.587h-8.068v-65.147h8.068v28.54h31.61v-28.54h8.066v65.147h-8.066v-28.538h-31.61V452.587z"/>
	<path fill="#010202" d="M299.537,452.587h-8.069v-23.893l-23.673-41.255h8.856l18.852,33.76l18.808-33.76h8.856l-23.629,41.255
		V452.587z"/>
	<path fill="#010202" d="M372.971,452.587l-35.819-48.794v48.794h-8.069v-65.147h6.096l35.774,48.797v-48.797h8.067v65.147H372.971z
		"/>
	<path fill="#010202" d="M401.688,451.405c-3.654-1.373-6.416-3.566-8.287-6.577c-2.28-3.683-3.419-11.442-3.419-23.277v-3.07
		c0-11.84,1.139-19.599,3.419-23.279c1.871-3.041,4.633-5.231,8.287-6.579c3.653-1.373,8.609-2.06,14.861-2.06
		c6.228,0,11.166,0.687,14.819,2.06c3.653,1.348,6.414,3.523,8.284,6.532c2.279,3.686,3.422,11.415,3.422,23.194v3.331
		c0,11.779-1.143,19.512-3.422,23.194c-1.87,3.009-4.631,5.186-8.284,6.531c-3.653,1.37-8.592,2.061-14.819,2.061
		C410.297,453.466,405.341,452.775,401.688,451.405z M400.239,399.407c-1.46,2.397-2.188,8.755-2.188,19.073v3.07
		c0,10.316,0.729,16.656,2.188,19.025c1.987,3.214,7.425,4.821,16.31,4.821c8.855,0,14.279-1.591,16.268-4.777
		c1.461-2.367,2.193-8.683,2.193-18.94v-3.331c0-10.26-0.732-16.573-2.193-18.941c-1.959-3.186-7.383-4.777-16.268-4.777
		S402.227,396.222,400.239,399.407z"/>
</g>
<g>
	<g>
		<path fill="#A7C437" d="M259.555,126.125c4.458,0,7.373,2.072,8.746,6.211l59.163,191.433H220.972l12.089-51.952h28.294
			L241.55,197.84h-1.028l-31.125,125.928h-51.701l55.046-191.433c1.196-4.139,3.941-6.211,8.23-6.211H259.555z"/>
	</g>
	<g>
		<g>
			<path fill="#92AD24" d="M435.918,126.125v51.67h-75.366c-6.173,0-9.258,3.577-9.258,10.729v5.93
				c0,6.776,2.829,10.164,8.485,10.164h39.098c15.775,0,27.051,4.002,33.826,12c6.771,8.003,10.162,19.438,10.162,34.307v20.328
				c0,35.01-16.205,52.517-48.619,52.517h-58.022l-16.578-51.952h68.174c6.17,0,9.26-3.573,9.26-10.729v-5.929
				c0-3.387-0.604-5.929-1.803-7.625c-1.203-1.693-3.431-2.539-6.685-2.539h-41.674c-7.372,0-13.675-1.081-18.902-3.248
				c-5.236-2.163-9.521-5.175-12.865-9.036c-3.342-3.856-5.786-8.373-7.33-13.553c-1.544-5.175-2.317-10.773-2.317-16.799v-23.717
				c0-35.013,16.207-52.518,48.619-52.518H435.918z"/>
		</g>
	</g>
</g>
<g>
	<path fill="#010202" d="M182.168,358.984h-21.627v13.596h-1.482v-19.25c0-5.413,0.524-8.907,1.572-10.477
		c1.555-2.349,5.13-3.522,10.723-3.522c5.595,0,9.17,1.174,10.725,3.522c1.047,1.569,1.57,5.063,1.57,10.477v19.25h-1.48V358.984z
		 M160.541,357.503h21.627v-4.173c0.015-5.116-0.418-8.33-1.3-9.646c-1.272-1.914-4.443-2.873-9.514-2.873
		c-5.054,0-8.219,0.959-9.491,2.873c-0.882,1.316-1.322,4.53-1.322,9.646V357.503z"/>
	<path fill="#010202" d="M190.83,372.58v-33.025h1.48v31.566h19.697v1.459H190.83z"/>
	<path fill="#010202" d="M216.025,372.58v-33.025h1.48v31.566h19.697v1.459H216.025z"/>
	<path fill="#010202" d="M256.925,370.787c-0.779-0.659-1.28-1.565-1.504-2.717c-0.149-0.718-0.224-1.943-0.224-3.679h1.48
		c0,2.827,0.405,4.585,1.211,5.273c1.301,1.122,4.561,1.681,9.782,1.681c5.236,0,8.504-0.559,9.804-1.681
		c0.555-0.465,0.912-1.153,1.078-2.065c0.088-0.582,0.134-1.653,0.134-3.208v-0.63c0-2.824-0.401-4.582-1.211-5.271
		c-1.299-1.122-4.568-1.685-9.804-1.685c-5.593,0-9.177-0.67-10.746-2.018c-0.779-0.657-1.28-1.562-1.504-2.716
		c-0.149-0.716-0.224-1.942-0.224-3.679v-0.628c0-1.735,0.074-2.963,0.224-3.679c0.224-1.153,0.725-2.058,1.504-2.717
		c1.569-1.359,5.153-2.04,10.746-2.04c5.608,0,9.199,0.681,10.769,2.04c0.778,0.659,1.28,1.563,1.504,2.717
		c0.148,0.716,0.224,1.943,0.224,3.679h-1.482c0-2.827-0.401-4.591-1.211-5.294c-1.299-1.109-4.568-1.662-9.804-1.662
		c-5.221,0-8.481,0.553-9.782,1.662c-0.553,0.477-0.912,1.174-1.077,2.086c-0.09,0.584-0.135,1.651-0.135,3.208v0.628
		c0,2.827,0.405,4.584,1.211,5.272c1.301,1.122,4.561,1.683,9.782,1.683c5.608,0,9.199,0.674,10.769,2.02
		c0.778,0.659,1.28,1.563,1.504,2.714c0.148,0.72,0.224,1.946,0.224,3.679v0.63c0,1.735-0.076,2.961-0.224,3.679
		c-0.224,1.151-0.726,2.058-1.504,2.717c-1.569,1.343-5.161,2.019-10.769,2.019C262.078,372.806,258.494,372.13,256.925,370.787z"/>
	<path fill="#010202" d="M287.347,372.58v-33.025h21.313v1.482h-19.833v13.772h18.779v1.481h-18.779v14.83h19.833v1.459H287.347z"/>
	<path fill="#010202" d="M336.031,372.58l-8.142-16.31H316.2v16.31h-1.479v-33.025h16.601c2.856,0,4.719,0.816,5.587,2.446
		c0.538,0.974,0.808,2.895,0.808,5.766v0.313c0,2.858-0.27,4.779-0.808,5.768c-0.808,1.479-2.423,2.28-4.849,2.4v0.022h-2.534
		l8.146,16.31H336.031z M331.321,354.81c2.258,0,3.693-0.561,4.309-1.682c0.401-0.762,0.606-2.444,0.606-5.048v-0.313
		c0-2.616-0.205-4.307-0.606-5.07c-0.599-1.107-2.034-1.659-4.309-1.659H316.2v13.772H331.321z"/>
	<path fill="#010202" d="M356.785,372.58l-15.301-33.025h1.615l14.359,30.962l14.359-30.962h1.616l-15.301,33.025H356.785z"/>
	<path fill="#010202" d="M380.523,372.58h-1.481v-33.025h1.481V372.58z"/>
	<path fill="#010202" d="M390.371,367.98c-1.029-1.912-1.546-5.765-1.546-11.555v-0.695c0-5.788,0.517-9.63,1.546-11.532
		c1.676-3.095,5.303-4.644,10.881-4.644c4.114,0,7.077,0.562,8.885,1.683c1.811,1.122,2.902,3.068,3.277,5.834l0.088,0.741
		l-1.457,0.201l-0.09-0.741c-0.301-2.227-1.115-3.783-2.445-4.666c-1.557-1.047-4.309-1.569-8.258-1.569
		c-4.994,0-8.186,1.286-9.58,3.858c-0.913,1.69-1.369,5.303-1.369,10.835v0.695c0,5.549,0.456,9.161,1.369,10.839
		c1.394,2.57,4.585,3.856,9.58,3.856c3.949,0,6.701-0.524,8.258-1.571c1.33-0.879,2.145-2.436,2.445-4.666l0.09-0.741l1.457,0.205
		l-0.088,0.716c-0.375,2.783-1.467,4.733-3.277,5.855c-1.808,1.108-4.771,1.661-8.885,1.661
		C395.66,372.58,392.032,371.048,390.371,367.98z"/>
	<path fill="#010202" d="M420.189,372.58v-33.025H441.5v1.482h-19.83v13.772h18.78v1.481h-18.78v14.83h19.83v1.459H420.189z"/>
</g>
<path fill="#515153" d="M272.348,561.855h182.396c0,0,108.066-26.555,103.911-217.664c0,0,55.185,145.914,28.997,217.662
	c0,0,218.089-137.708-128.311-525.925C459.342,35.929,664.64,447.787,272.348,561.855z"/>
</svg>
